<?xml version="1.0" standalone="no"?>
<!DOCTYPE svg PUBLIC "-//W3C//DTD SVG 20010904//EN"
 "http://www.w3.org/TR/2001/REC-SVG-20010904/DTD/svg10.dtd">
<svg version="1.0" xmlns="http://www.w3.org/2000/svg"
 width="260.000000pt" height="260.000000pt" viewBox="0 0 260.000000 260.000000"
 preserveAspectRatio="xMidYMid meet">
<metadata>
Created by potrace 1.11, written by Peter Selinger 2001-2013
</metadata>
<g transform="translate(0.000000,260.000000) scale(0.100000,-0.100000)"
fill="#000000" stroke="none">
<path d="M1239 1710 c-141 -25 -253 -128 -299 -276 -16 -54 -19 -57 -69 -74
-111 -37 -175 -123 -174 -234 0 -100 44 -175 126 -217 64 -33 176 -41 514 -37
301 4 321 5 375 27 150 59 229 220 184 376 -25 83 -106 163 -196 193 -59 20
-67 26 -89 68 -66 124 -228 199 -372 174z m171 -111 c58 -26 96 -63 125 -119
29 -56 50 -76 95 -85 87 -18 160 -82 180 -157 26 -95 -21 -197 -111 -242 l-53
-26 -370 0 c-414 0 -418 1 -463 69 -44 65 -23 179 39 212 13 7 50 22 83 33 57
20 61 23 74 66 33 106 44 131 84 176 79 90 212 121 317 73z"/>
</g>
</svg>
