<svg width="33" height="26" viewBox="0 0 33 26" fill="none" xmlns="http://www.w3.org/2000/svg">
<path d="M32.5446 3.33928C31.3795 3.84152 30.1138 4.20312 28.808 4.34375C30.154 3.54018 31.1786 2.27455 31.6607 0.767857C30.4152 1.51116 29.0089 2.05357 27.5424 2.33482C26.3571 1.0692 24.6696 0.285714 22.8013 0.285714C19.2054 0.285714 16.3125 3.19866 16.3125 6.77455C16.3125 7.27678 16.3728 7.77902 16.4732 8.26116C11.0893 7.97991 6.28795 5.40848 3.09375 1.47098C2.53125 2.43527 2.20982 3.54018 2.20982 4.74553C2.20982 6.99553 3.35491 8.98437 5.10268 10.1496C4.03795 10.1094 3.03348 9.80804 2.16964 9.32589C2.16964 9.34598 2.16964 9.38616 2.16964 9.40625C2.16964 12.5603 4.39955 15.1719 7.37277 15.7746C6.83036 15.9152 6.24777 15.9955 5.66518 15.9955C5.2433 15.9955 4.84152 15.9554 4.43973 15.8951C5.26339 18.4665 7.65402 20.3348 10.5067 20.3951C8.27679 22.1429 5.48438 23.1674 2.45089 23.1674C1.90848 23.1674 1.40625 23.1473 0.883929 23.0871C3.7567 24.9353 7.17188 26 10.8482 26C22.7812 26 29.3103 16.1161 29.3103 7.53795C29.3103 7.2567 29.3103 6.97545 29.2902 6.6942C30.5558 5.77009 31.6607 4.625 32.5446 3.33928Z" fill="white"/>
</svg>
