<?xml version="1.0" standalone="no"?>
<!DOCTYPE svg PUBLIC "-//W3C//DTD SVG 20010904//EN"
 "http://www.w3.org/TR/2001/REC-SVG-20010904/DTD/svg10.dtd">
<svg version="1.0" xmlns="http://www.w3.org/2000/svg"
 width="1024.000000pt" height="1024.000000pt" viewBox="0 0 1024.000000 1024.000000"
 preserveAspectRatio="xMidYMid meet">
<metadata>
Created by potrace 1.14, written by Peter Selinger 2001-2017
</metadata>
<g transform="translate(0.000000,1024.000000) scale(0.100000,-0.100000)"
fill="#000000" stroke="none">
<path d="M1950 10224 c-237 -29 -463 -97 -695 -209 -595 -287 -1027 -818
-1190 -1462 -63 -253 -58 18 -62 -3358 -3 -2204 -1 -3102 7 -3185 91 -940 757
-1713 1677 -1945 253 -63 -18 -58 3358 -62 2204 -3 3102 -1 3185 7 940 91
1713 757 1945 1677 63 253 58 -18 62 3358 3 2204 1 3102 -7 3185 -91 936 -761
1714 -1677 1945 -253 64 23 59 -3388 61 -2600 2 -3118 0 -3215 -12z m3583
-2984 c273 -58 479 -171 683 -375 129 -129 215 -247 286 -392 46 -95 69 -115
158 -138 333 -84 584 -236 750 -456 82 -110 123 -187 165 -311 116 -348 73
-733 -118 -1034 -146 -232 -413 -428 -692 -509 -197 -57 -144 -55 -1604 -55
-864 0 -1376 4 -1429 10 -180 23 -383 94 -506 179 -246 170 -386 453 -386 784
0 455 288 802 779 936 124 34 134 46 176 212 138 544 503 948 1005 1112 49 16
223 54 280 61 88 11 358 -3 453 -24z m-1617 -3477 c-2 -10 2 -22 8 -26 7 -6 6
-7 -4 -4 -14 3 -21 23 -13 40 7 13 11 8 9 -10z m2560 0 c-2 -10 2 -22 8 -26 7
-6 6 -7 -4 -4 -14 3 -21 23 -13 40 7 13 11 8 9 -10z m-2501 -3 c3 -5 1 -10 -4
-10 -6 0 -11 5 -11 10 0 6 2 10 4 10 3 0 8 -4 11 -10z m1640 -10 c-3 -6 5 -14
19 -20 14 -5 26 -13 26 -17 0 -9 63 -11 70 -2 9 11 62 20 56 10 -3 -5 2 -7 13
-4 10 3 28 0 40 -6 17 -9 20 -9 15 3 -4 12 3 13 37 9 30 -4 40 -3 35 5 -4 7
-3 12 3 12 6 0 13 -11 17 -25 3 -14 10 -25 15 -25 6 0 5 10 -2 22 -10 19 -9
20 7 13 11 -4 29 -7 42 -6 12 0 22 -4 22 -10 0 -5 5 -7 10 -4 6 4 3 13 -8 23
-10 9 -12 13 -4 8 19 -14 85 -16 100 -3 7 5 15 7 19 3 3 -3 1 -6 -6 -6 -7 0
-9 -5 -6 -10 4 -6 11 -7 17 -4 6 4 25 7 42 6 17 0 36 4 43 10 9 7 14 6 19 -6
4 -11 13 -14 32 -9 20 5 23 3 17 -8 -8 -12 -6 -12 8 0 13 10 17 10 17 1 0 -10
3 -10 15 0 12 10 15 10 15 0 0 -8 8 -10 23 -5 12 3 28 7 35 7 7 1 10 9 6 20
-4 13 0 18 13 18 15 0 16 -2 3 -10 -8 -5 -13 -10 -10 -11 12 -2 56 -9 67 -11
19 -2 -15 -54 -78 -117 -97 -97 -213 -153 -352 -171 -41 -5 -540 -10 -1139
-10 l-1067 0 -7 48 c-11 68 -8 184 5 225 10 31 15 35 39 31 15 -3 39 -6 54 -7
14 -1 30 -5 33 -9 4 -4 15 -4 24 1 9 4 23 7 31 6 8 -1 21 3 28 8 7 6 12 6 12
0 0 -13 30 -12 30 1 0 6 5 3 11 -6 5 -10 17 -18 26 -18 12 0 13 3 4 14 -10 12
-5 13 31 9 24 -3 46 -11 50 -17 5 -7 8 -7 8 3 0 7 6 11 15 8 8 -4 17 -2 20 3
3 6 16 5 32 -1 40 -15 114 -14 124 2 7 12 9 12 9 0 0 -11 3 -12 11 -4 6 6 18
9 26 6 7 -3 22 2 33 12 18 16 18 16 13 -7 -3 -17 -2 -20 5 -9 9 12 13 13 26 1
14 -11 16 -10 10 5 -5 13 -3 16 7 13 8 -3 13 -12 13 -21 -1 -9 3 -14 8 -11 5
3 7 12 4 20 -3 7 0 16 6 20 7 4 8 3 4 -4 -4 -7 -2 -12 3 -12 6 0 11 -7 11 -15
0 -8 5 -15 11 -15 5 0 7 5 3 12 -5 7 -3 8 6 3 7 -4 16 -2 21 6 7 11 9 10 9 -3
0 -24 17 -23 24 0 4 10 13 19 21 19 8 0 12 -3 10 -7 -2 -3 0 -12 6 -20 5 -10
9 -11 9 -3 0 8 13 11 35 9 19 -2 35 1 35 6 0 6 -7 7 -16 4 -9 -3 -12 -2 -9 5
4 6 13 8 21 5 8 -3 14 0 15 7 0 9 2 9 6 -1 2 -6 9 -10 14 -6 5 3 12 -2 15 -10
9 -24 34 -19 35 7 l2 22 4 -22 c2 -13 8 -23 13 -23 4 0 6 10 3 23 -3 16 -2 18
5 8 5 -7 14 -11 20 -7 5 3 13 -2 16 -11 6 -15 8 -15 16 -3 7 12 11 10 19 -10
5 -14 10 -19 10 -11 1 8 7 11 17 7 8 -3 24 -1 35 4 10 6 19 7 19 2 0 -5 6 -9
14 -9 8 0 12 6 9 13 -4 10 3 10 32 1 30 -9 38 -8 45 3 5 8 6 17 3 20 -3 3 -8
-1 -10 -7 -6 -18 -30 -16 -37 2 -3 8 -1 15 4 15 6 0 10 -6 10 -12 0 -9 4 -8
10 2 8 12 13 13 30 3 11 -7 27 -13 35 -13 9 0 13 -4 10 -10 -3 -6 1 -7 9 -4 9
3 14 10 11 14 -3 5 0 12 6 16 8 5 10 -1 7 -19 -3 -15 -2 -24 3 -22 4 3 10 -1
13 -7 3 -7 4 -4 1 7 -4 17 1 20 31 23 19 1 33 -2 30 -6 -3 -5 6 -14 20 -21 14
-6 23 -8 21 -3 -3 4 2 16 10 27 12 15 14 16 10 3 -4 -12 -1 -16 14 -15 10 1
19 7 19 13 0 7 7 15 16 18 8 3 13 2 9 -3 -3 -5 -2 -11 2 -14 5 -2 2 -2 -4 -1
-7 2 -13 -1 -13 -6 0 -14 24 -12 39 3 10 9 15 9 18 0 2 -7 11 -9 19 -6 8 3 14
0 14 -7 0 -10 4 -9 16 1 12 9 20 10 33 2 24 -15 49 0 33 20 -7 7 -9 17 -5 20
10 10 15 8 8 -3z m185 -2 c0 -4 -4 -8 -9 -8 -6 0 -12 4 -15 8 -3 5 1 9 9 9 8
0 15 -4 15 -9z m368 -13 c-3 -3 -9 2 -12 12 -6 14 -5 15 5 6 7 -7 10 -15 7
-18z m-2165 -5 c-4 -16 -8 -18 -19 -9 -16 13 -19 23 -5 14 5 -3 12 -1 16 5 10
16 14 12 8 -10z m47 5 c0 -12 -19 -12 -23 0 -4 9 -1 12 9 8 7 -3 14 -7 14 -8z
m217 -1 c2 -6 -6 -10 -19 -8 -31 3 -30 3 -23 15 8 12 37 8 42 -7z m1094 -7
c-10 -9 -11 -8 -5 6 3 10 9 15 12 12 3 -3 0 -11 -7 -18z m186 17 c-3 -3 -12
-4 -19 -1 -8 3 -5 6 6 6 11 1 17 -2 13 -5z m43 -18 c14 -18 14 -18 -7 -6 -12
8 -19 18 -16 23 3 4 6 7 7 5 1 -2 8 -12 16 -22z m-1383 8 c-3 -3 -12 -4 -19
-1 -8 3 -5 6 6 6 11 1 17 -2 13 -5z m833 -14 c0 -5 -5 -10 -11 -10 -5 0 -7 5
-4 10 3 6 8 10 11 10 2 0 4 -4 4 -10z"/>
<path d="M4828 3708 c5 -20 15 -17 18 6 1 7 -4 13 -11 13 -7 0 -10 -8 -7 -19z"/>
<path d="M5306 3705 c4 -8 8 -15 10 -15 2 0 4 7 4 15 0 8 -4 15 -10 15 -5 0
-7 -7 -4 -15z"/>
<path d="M6170 3710 c-13 -8 -12 -10 3 -10 9 0 17 5 17 10 0 12 -1 12 -20 0z"/>
</g>
</svg>
